# xmcd
#
# Track frame offsets: 
#        150
#        14766
#        29630
#        45486
#        63212
#        79985
#        97772
#        110567
#        127730
#        144217
#        158297
#
# Disc length: 2347 seconds
#
# Revision: 2
# Processed by: cddbd v1.5PL3 Copyright (c) Steve Scherf et al.
# Submitted via: ExactAudioCopy v0.95a3
#
DISCID=7e09290b
DTITLE=Sammy Kershaw - I Want My Money Back
DYEAR=2003
DGENRE=Country
TTITLE0=I Want My Money Back
TTITLE1=Miss What's Her Name
TTITLE2=Metropolis
TTITLE3=Monday Morning On Bourbon Street
TTITLE4=Stitches
TTITLE5=Beer, Bait And Ammo
TTITLE6=28/83 (She Ain't In It For The Love)
TTITLE7=Gone For Good Goodbye
TTITLE8=I've Never Been Anywhere
TTITLE9=The Paper Heart
TTITLE10=Are You Having Fun Yet?
EXTD=
EXTT0=
EXTT1=
EXTT2=
EXTT3=
EXTT4=
EXTT5=
EXTT6=
EXTT7=
EXTT8=
EXTT9=
EXTT10=
PLAYORDER=
